<svg version="1.1" xmlns="http://www.w3.org/2000/svg" xmlns:xlink="http://www.w3.org/1999/xlink" width="1252.02978515625" height="1193"><defs/><g><g transform="translate(-1502,-494) scale(1,1)"><rect fill="#C0C0C0" stroke="none" x="2055" y="511" width="159.6689453125" height="162" opacity="0.2"/></g><g transform="translate(-1502,-494) scale(1,1)"><rect fill="#ffffff" stroke="none" x="2048" y="504" width="159.6689453125" height="162"/></g><g transform="translate(-1502,-494) scale(1,1)"><path fill="none" stroke="#000000" d="M 2048 504 L 2207.6689453125 504 L 2207.6689453125 666 L 2048 666 L 2048 504 Z Z" stroke-miterlimit="10"/></g><g transform="translate(-1502,-494) scale(1,1)"><path fill="none" stroke="#000000" d="M 2048 529 L 2207.6689453125 529" stroke-miterlimit="10"/></g><g transform="translate(-1502,-494) scale(1,1)"><path fill="none" stroke="#000000" d="M 2048 657 L 2207.6689453125 657" stroke-miterlimit="10"/></g><g transform="translate(-1502,-494) scale(1,1)"><g><path fill="none" stroke="none"/><text fill="#000000" stroke="none" font-family="Arial" font-size="13px" font-style="normal" font-weight="bold" text-decoration="none" x="2097.127685546875" y="521.5">Employee</text></g></g><g transform="translate(-1502,-494) scale(1,1)"><g><path fill="none" stroke="none"/><text fill="#000000" stroke="none" font-family="Arial" font-size="13px" font-style="normal" font-weight="normal" text-decoration="none" x="2053" y="544.5">-cf: String</text></g></g><g transform="translate(-1502,-494) scale(1,1)"><g><path fill="none" stroke="none"/><text fill="#000000" stroke="none" font-family="Arial" font-size="13px" font-style="normal" font-weight="normal" text-decoration="none" x="2053" y="559.5">-firstName: String</text></g></g><g transform="translate(-1502,-494) scale(1,1)"><g><path fill="none" stroke="none"/><text fill="#000000" stroke="none" font-family="Arial" font-size="13px" font-style="normal" font-weight="normal" text-decoration="none" x="2053" y="574.5">-lastName: String</text></g></g><g transform="translate(-1502,-494) scale(1,1)"><g><path fill="none" stroke="none"/><text fill="#000000" stroke="none" font-family="Arial" font-size="13px" font-style="normal" font-weight="normal" text-decoration="none" x="2053" y="589.5">-email: String</text></g></g><g transform="translate(-1502,-494) scale(1,1)"><g><path fill="none" stroke="none"/><text fill="#000000" stroke="none" font-family="Arial" font-size="13px" font-style="normal" font-weight="normal" text-decoration="none" x="2053" y="604.5">-birthDate: LocalDate</text></g></g><g transform="translate(-1502,-494) scale(1,1)"><g><path fill="none" stroke="none"/><text fill="#000000" stroke="none" font-family="Arial" font-size="13px" font-style="normal" font-weight="normal" text-decoration="none" x="2053" y="619.5">-role: String</text></g></g><g transform="translate(-1502,-494) scale(1,1)"><g><path fill="none" stroke="none"/><text fill="#000000" stroke="none" font-family="Arial" font-size="13px" font-style="normal" font-weight="normal" text-decoration="none" x="2053" y="634.5">-salary: float</text></g></g><g transform="translate(-1502,-494) scale(1,1)"><g><path fill="none" stroke="none"/><text fill="#000000" stroke="none" font-family="Arial" font-size="13px" font-style="normal" font-weight="normal" text-decoration="none" x="2053" y="649.5">-type: EmpType</text></g></g><g transform="translate(-1502,-494) scale(1,1)"><rect fill="#C0C0C0" stroke="none" x="1903" y="1023" width="131.22412109375" height="44" opacity="0.2"/></g><g transform="translate(-1502,-494) scale(1,1)"><rect fill="#ffffff" stroke="none" x="1896" y="1016" width="131.22412109375" height="44"/></g><g transform="translate(-1502,-494) scale(1,1)"><path fill="none" stroke="#000000" d="M 1896 1016 L 2027.22412109375 1016 L 2027.22412109375 1060 L 1896 1060 L 1896 1016 Z Z" stroke-miterlimit="10"/></g><g transform="translate(-1502,-494) scale(1,1)"><path fill="none" stroke="#000000" d="M 1896 1041 L 2027.22412109375 1041" stroke-miterlimit="10"/></g><g transform="translate(-1502,-494) scale(1,1)"><path fill="none" stroke="#000000" d="M 1896 1051 L 2027.22412109375 1051" stroke-miterlimit="10"/></g><g transform="translate(-1502,-494) scale(1,1)"><g><path fill="none" stroke="none"/><text fill="#000000" stroke="none" font-family="Arial" font-size="13px" font-style="normal" font-weight="bold" text-decoration="none" x="1934.882080078125" y="1033.5">Manager</text></g></g><g transform="translate(-1502,-494) scale(1,1)"><rect fill="#C0C0C0" stroke="none" x="2247" y="1015" width="119.53173828125" height="44" opacity="0.2"/></g><g transform="translate(-1502,-494) scale(1,1)"><rect fill="#ffffff" stroke="none" x="2240" y="1008" width="119.53173828125" height="44"/></g><g transform="translate(-1502,-494) scale(1,1)"><path fill="none" stroke="#000000" d="M 2240 1008 L 2359.53173828125 1008 L 2359.53173828125 1052 L 2240 1052 L 2240 1008 Z Z" stroke-miterlimit="10"/></g><g transform="translate(-1502,-494) scale(1,1)"><path fill="none" stroke="#000000" d="M 2240 1033 L 2359.53173828125 1033" stroke-miterlimit="10"/></g><g transform="translate(-1502,-494) scale(1,1)"><path fill="none" stroke="#000000" d="M 2240 1043 L 2359.53173828125 1043" stroke-miterlimit="10"/></g><g transform="translate(-1502,-494) scale(1,1)"><g><path fill="none" stroke="none"/><text fill="#000000" stroke="none" font-family="Arial" font-size="13px" font-style="normal" font-weight="bold" text-decoration="none" x="2279.5390625" y="1025.5">Senior</text></g></g><g transform="translate(-1502,-494) scale(1,1)"><rect fill="#C0C0C0" stroke="none" x="1911" y="1311" width="142.33251953125" height="190" opacity="0.2"/></g><g transform="translate(-1502,-494) scale(1,1)"><rect fill="#ffffff" stroke="none" x="1904" y="1304" width="142.33251953125" height="190"/></g><g transform="translate(-1502,-494) scale(1,1)"><path fill="none" stroke="#000000" d="M 1904 1304 L 2046.33251953125 1304 L 2046.33251953125 1494 L 1904 1494 L 1904 1304 Z Z" stroke-miterlimit="10"/></g><g transform="translate(-1502,-494) scale(1,1)"><path fill="none" stroke="#000000" d="M 1904 1329 L 2046.33251953125 1329" stroke-miterlimit="10"/></g><g transform="translate(-1502,-494) scale(1,1)"><path fill="none" stroke="#000000" d="M 1904 1442 L 2046.33251953125 1442" stroke-miterlimit="10"/></g><g transform="translate(-1502,-494) scale(1,1)"><g><path fill="none" stroke="none"/><text fill="#000000" stroke="none" font-family="Arial" font-size="13px" font-style="normal" font-weight="bold" text-decoration="none" x="1953.13037109375" y="1321.5">Project</text></g></g><g transform="translate(-1502,-494) scale(1,1)"><g><path fill="none" stroke="none"/><text fill="#000000" stroke="none" font-family="Arial" font-size="13px" font-style="normal" font-weight="normal" text-decoration="none" x="1909" y="1344.5">-cup: String</text></g></g><g transform="translate(-1502,-494) scale(1,1)"><g><path fill="none" stroke="none"/><text fill="#000000" stroke="none" font-family="Arial" font-size="13px" font-style="normal" font-weight="normal" text-decoration="none" x="1909" y="1359.5">-name: String</text></g></g><g transform="translate(-1502,-494) scale(1,1)"><g><path fill="none" stroke="none"/><text fill="#000000" stroke="none" font-family="Arial" font-size="13px" font-style="normal" font-weight="normal" text-decoration="none" x="1909" y="1374.5">-funds: float</text></g></g><g transform="translate(-1502,-494) scale(1,1)"><g><path fill="none" stroke="none"/><text fill="#000000" stroke="none" font-family="Arial" font-size="13px" font-style="normal" font-weight="normal" text-decoration="none" x="1909" y="1389.5">-description: String</text></g></g><g transform="translate(-1502,-494) scale(1,1)"><g><path fill="none" stroke="none"/><text fill="#000000" stroke="none" font-family="Arial" font-size="13px" font-style="normal" font-weight="normal" text-decoration="none" x="1909" y="1404.5">-startDate: LocalDate</text></g></g><g transform="translate(-1502,-494) scale(1,1)"><g><path fill="none" stroke="none"/><text fill="#000000" stroke="none" font-family="Arial" font-size="13px" font-style="normal" font-weight="normal" text-decoration="none" x="1909" y="1419.5">-endDate: LocalDate</text></g></g><g transform="translate(-1502,-494) scale(1,1)"><g><path fill="none" stroke="none"/><text fill="#000000" stroke="none" font-family="Arial" font-size="13px" font-style="normal" font-weight="normal" text-decoration="none" x="1909" y="1434.5">-deadline: LocalDate</text></g></g><g transform="translate(-1502,-494) scale(1,1)"><g><path fill="none" stroke="none"/><text fill="#000000" stroke="none" font-family="Arial" font-size="13px" font-style="normal" font-weight="normal" text-decoration="none" x="1909" y="1457.5">+hireProjectSalaried()</text></g></g><g transform="translate(-1502,-494) scale(1,1)"><g><path fill="none" stroke="none"/><text fill="#000000" stroke="none" font-family="Arial" font-size="13px" font-style="normal" font-weight="normal" text-decoration="none" x="1909" y="1472.5">+buyEquipment()</text></g></g><g transform="translate(-1502,-494) scale(1,1)"><g><path fill="none" stroke="none"/><text fill="#000000" stroke="none" font-family="Arial" font-size="13px" font-style="normal" font-weight="normal" text-decoration="none" x="1909" y="1487.5">+endProject()</text></g></g><g transform="translate(-1502,-494) scale(1,1)"><rect fill="#C0C0C0" stroke="none" x="1519" y="1343" width="131.83984375" height="132" opacity="0.2"/></g><g transform="translate(-1502,-494) scale(1,1)"><rect fill="#ffffff" stroke="none" x="1512" y="1336" width="131.83984375" height="132"/></g><g transform="translate(-1502,-494) scale(1,1)"><path fill="none" stroke="#000000" d="M 1512 1336 L 1643.83984375 1336 L 1643.83984375 1468 L 1512 1468 L 1512 1336 Z Z" stroke-miterlimit="10"/></g><g transform="translate(-1502,-494) scale(1,1)"><path fill="none" stroke="#000000" d="M 1512 1361 L 1643.83984375 1361" stroke-miterlimit="10"/></g><g transform="translate(-1502,-494) scale(1,1)"><path fill="none" stroke="#000000" d="M 1512 1459 L 1643.83984375 1459" stroke-miterlimit="10"/></g><g transform="translate(-1502,-494) scale(1,1)"><g><path fill="none" stroke="none"/><text fill="#000000" stroke="none" font-family="Arial" font-size="13px" font-style="normal" font-weight="bold" text-decoration="none" x="1530.591796875" y="1353.5">ProjectSalaried</text></g></g><g transform="translate(-1502,-494) scale(1,1)"><g><path fill="none" stroke="none"/><text fill="#000000" stroke="none" font-family="Arial" font-size="13px" font-style="normal" font-weight="normal" text-decoration="none" x="1517" y="1376.5">-cf: String</text></g></g><g transform="translate(-1502,-494) scale(1,1)"><g><path fill="none" stroke="none"/><text fill="#000000" stroke="none" font-family="Arial" font-size="13px" font-style="normal" font-weight="normal" text-decoration="none" x="1517" y="1391.5">-firstName: String</text></g></g><g transform="translate(-1502,-494) scale(1,1)"><g><path fill="none" stroke="none"/><text fill="#000000" stroke="none" font-family="Arial" font-size="13px" font-style="normal" font-weight="normal" text-decoration="none" x="1517" y="1406.5">-lastName: String</text></g></g><g transform="translate(-1502,-494) scale(1,1)"><g><path fill="none" stroke="none"/><text fill="#000000" stroke="none" font-family="Arial" font-size="13px" font-style="normal" font-weight="normal" text-decoration="none" x="1517" y="1421.5">-birthDate: LocalDate</text></g></g><g transform="translate(-1502,-494) scale(1,1)"><g><path fill="none" stroke="none"/><text fill="#000000" stroke="none" font-family="Arial" font-size="13px" font-style="normal" font-weight="normal" text-decoration="none" x="1517" y="1436.5">-role: String</text></g></g><g transform="translate(-1502,-494) scale(1,1)"><g><path fill="none" stroke="none"/><text fill="#000000" stroke="none" font-family="Arial" font-size="13px" font-style="normal" font-weight="normal" text-decoration="none" x="1517" y="1451.5">-email: String</text></g></g><g transform="translate(-1502,-494) scale(1,1)"><rect fill="#C0C0C0" stroke="none" x="1711" y="1455" width="163.86376953125" height="87" opacity="0.2"/></g><g transform="translate(-1502,-494) scale(1,1)"><rect fill="#ffffff" stroke="none" x="1704" y="1448" width="163.86376953125" height="87"/></g><g transform="translate(-1502,-494) scale(1,1)"><path fill="none" stroke="#000000" d="M 1704 1448 L 1867.86376953125 1448 L 1867.86376953125 1535 L 1704 1535 L 1704 1448 Z Z" stroke-miterlimit="10"/></g><g transform="translate(-1502,-494) scale(1,1)"><path fill="none" stroke="#000000" d="M 1704 1473 L 1867.86376953125 1473" stroke-miterlimit="10"/></g><g transform="translate(-1502,-494) scale(1,1)"><path fill="none" stroke="#000000" d="M 1704 1526 L 1867.86376953125 1526" stroke-miterlimit="10"/></g><g transform="translate(-1502,-494) scale(1,1)"><g><path fill="none" stroke="none"/><text fill="#000000" stroke="none" font-family="Arial" font-size="13px" font-style="normal" font-weight="bold" text-decoration="none" x="1759.208251953125" y="1465.5">Contract</text></g></g><g transform="translate(-1502,-494) scale(1,1)"><g><path fill="none" stroke="none"/><text fill="#000000" stroke="none" font-family="Arial" font-size="13px" font-style="normal" font-weight="normal" text-decoration="none" x="1709" y="1488.5">-hireDate: LocalDateTime</text></g></g><g transform="translate(-1502,-494) scale(1,1)"><g><path fill="none" stroke="none"/><text fill="#000000" stroke="none" font-family="Arial" font-size="13px" font-style="normal" font-weight="normal" text-decoration="none" x="1709" y="1503.5">-expiration: LocalDateTime</text></g></g><g transform="translate(-1502,-494) scale(1,1)"><g><path fill="none" stroke="none"/><text fill="#000000" stroke="none" font-family="Arial" font-size="13px" font-style="normal" font-weight="normal" text-decoration="none" x="1709" y="1518.5">-pay: float</text></g></g><g transform="translate(-1502,-494) scale(1,1)"><path fill="none" stroke="#000000" d="M 1904 1370 L 1644 1370" stroke-miterlimit="10"/></g><g transform="translate(-1502,-494) scale(1,1)"><g><path fill="none" stroke="none"/><text fill="#000000" stroke="none" font-family="Arial" font-size="13px" font-style="normal" font-weight="normal" text-decoration="none" x="1745.5" y="1357.5">+works &gt;</text></g></g><g transform="translate(-1502,-494) scale(1,1)"><g><path fill="none" stroke="none"/><text fill="#000000" stroke="none" font-family="Arial" font-size="13px" font-style="normal" font-weight="normal" text-decoration="none" x="1879.812255859375" y="1361.5">*</text></g></g><g transform="translate(-1502,-494) scale(1,1)"><g><path fill="none" stroke="none"/><text fill="#000000" stroke="none" font-family="Arial" font-size="13px" font-style="normal" font-weight="normal" text-decoration="none" x="1662.220458984375" y="1361.5">*</text></g></g><g transform="translate(-1502,-494) scale(1,1)"><path fill="none" stroke="#000000" d="M 1784 1447 L 1784 1371 L 1775 1371" stroke-miterlimit="10" stroke-dasharray="3"/></g><g transform="translate(-1502,-494) scale(1,1)"><path fill="none" stroke="#000000" d="M 1961 1304 L 1961 1060" stroke-miterlimit="10"/></g><g transform="translate(-1502,-494) scale(1,1)"><g><path fill="none" stroke="none"/><text fill="#000000" stroke="none" font-family="Arial" font-size="13px" font-style="normal" font-weight="normal" text-decoration="none" x="1963.5" y="1173.5">+works &gt;</text></g></g><g transform="translate(-1502,-494) scale(1,1)"><g><path fill="none" stroke="none"/><text fill="#000000" stroke="none" font-family="Arial" font-size="13px" font-style="normal" font-weight="normal" text-decoration="none" x="1963.5" y="1286.5">1..*</text></g></g><g transform="translate(-1502,-494) scale(1,1)"><g><path fill="none" stroke="none"/><text fill="#000000" stroke="none" font-family="Arial" font-size="13px" font-style="normal" font-weight="normal" text-decoration="none" x="1969.5" y="1085.5">1</text></g></g><g transform="translate(-1502,-494) scale(1,1)"><path fill="none" stroke="#000000" d="M 2046 1328 L 2264 1328 L 2264 1052" stroke-miterlimit="10"/></g><g transform="translate(-1502,-494) scale(1,1)"><g><path fill="none" stroke="none"/><text fill="#000000" stroke="none" font-family="Arial" font-size="13px" font-style="normal" font-weight="normal" text-decoration="none" x="2181.844482421875" y="1321.5">+&lt; works</text></g></g><g transform="translate(-1502,-494) scale(1,1)"><g><path fill="none" stroke="none"/><text fill="#000000" stroke="none" font-family="Arial" font-size="13px" font-style="normal" font-weight="normal" text-decoration="none" x="2059.5" y="1321.5">1..*</text></g></g><g transform="translate(-1502,-494) scale(1,1)"><g><path fill="none" stroke="none"/><text fill="#000000" stroke="none" font-family="Arial" font-size="13px" font-style="normal" font-weight="normal" text-decoration="none" x="2247.5" y="1077.5">1</text></g></g><g transform="translate(-1502,-494) scale(1,1)"><rect fill="#C0C0C0" stroke="none" x="2543" y="1311" width="152" height="145" opacity="0.2"/></g><g transform="translate(-1502,-494) scale(1,1)"><rect fill="#ffffff" stroke="none" x="2536" y="1304" width="152" height="145"/></g><g transform="translate(-1502,-494) scale(1,1)"><path fill="none" stroke="#000000" d="M 2536 1304 L 2688 1304 L 2688 1449 L 2536 1449 L 2536 1304 Z Z" stroke-miterlimit="10"/></g><g transform="translate(-1502,-494) scale(1,1)"><path fill="none" stroke="#000000" d="M 2536 1329 L 2688 1329" stroke-miterlimit="10"/></g><g transform="translate(-1502,-494) scale(1,1)"><path fill="none" stroke="#000000" d="M 2536 1382 L 2688 1382" stroke-miterlimit="10"/></g><g transform="translate(-1502,-494) scale(1,1)"><g><path fill="none" stroke="none"/><text fill="#000000" stroke="none" font-family="Arial" font-size="13px" font-style="normal" font-weight="bold" text-decoration="none" x="2578.049560546875" y="1321.5">Laboratory</text></g></g><g transform="translate(-1502,-494) scale(1,1)"><g><path fill="none" stroke="none"/><text fill="#000000" stroke="none" font-family="Arial" font-size="13px" font-style="normal" font-weight="normal" text-decoration="none" x="2541" y="1344.5">-labCode: String</text></g></g><g transform="translate(-1502,-494) scale(1,1)"><g><path fill="none" stroke="none"/><text fill="#000000" stroke="none" font-family="Arial" font-size="13px" font-style="normal" font-weight="normal" text-decoration="none" x="2541" y="1359.5">-name: String</text></g></g><g transform="translate(-1502,-494) scale(1,1)"><g><path fill="none" stroke="none"/><text fill="#000000" stroke="none" font-family="Arial" font-size="13px" font-style="normal" font-weight="normal" text-decoration="none" x="2541" y="1374.5">-topic: String</text></g></g><g transform="translate(-1502,-494) scale(1,1)"><g><path fill="none" stroke="none"/><text fill="#000000" stroke="none" font-family="Arial" font-size="13px" font-style="normal" font-weight="normal" text-decoration="none" x="2541" y="1397.5">+joinProject()</text></g></g><g transform="translate(-1502,-494) scale(1,1)"><g><path fill="none" stroke="none"/><text fill="#000000" stroke="none" font-family="Arial" font-size="13px" font-style="normal" font-weight="normal" text-decoration="none" x="2541" y="1412.5">+leaveProject()</text></g></g><g transform="translate(-1502,-494) scale(1,1)"><g><path fill="none" stroke="none"/><text fill="#000000" stroke="none" font-family="Arial" font-size="13px" font-style="normal" font-weight="normal" text-decoration="none" x="2541" y="1427.5">+requestEquipment()</text></g></g><g transform="translate(-1502,-494) scale(1,1)"><g><path fill="none" stroke="none"/><text fill="#000000" stroke="none" font-family="Arial" font-size="13px" font-style="normal" font-weight="normal" text-decoration="none" x="2541" y="1442.5">+viewProject()</text></g></g><g transform="translate(-1502,-494) scale(1,1)"><rect fill="#C0C0C0" stroke="none" x="2591" y="1567" width="160.02978515625" height="117" opacity="0.2"/></g><g transform="translate(-1502,-494) scale(1,1)"><rect fill="#ffffff" stroke="none" x="2584" y="1560" width="160.02978515625" height="117"/></g><g transform="translate(-1502,-494) scale(1,1)"><path fill="none" stroke="#000000" d="M 2584 1560 L 2744.02978515625 1560 L 2744.02978515625 1677 L 2584 1677 L 2584 1560 Z Z" stroke-miterlimit="10"/></g><g transform="translate(-1502,-494) scale(1,1)"><path fill="none" stroke="#000000" d="M 2584 1585 L 2744.02978515625 1585" stroke-miterlimit="10"/></g><g transform="translate(-1502,-494) scale(1,1)"><path fill="none" stroke="#000000" d="M 2584 1668 L 2744.02978515625 1668" stroke-miterlimit="10"/></g><g transform="translate(-1502,-494) scale(1,1)"><g><path fill="none" stroke="none"/><text fill="#000000" stroke="none" font-family="Arial" font-size="13px" font-style="normal" font-weight="bold" text-decoration="none" x="2630.4326171875" y="1577.5">Equipment</text></g></g><g transform="translate(-1502,-494) scale(1,1)"><g><path fill="none" stroke="none"/><text fill="#000000" stroke="none" font-family="Arial" font-size="13px" font-style="normal" font-weight="normal" text-decoration="none" x="2589" y="1600.5">-name: String</text></g></g><g transform="translate(-1502,-494) scale(1,1)"><g><path fill="none" stroke="none"/><text fill="#000000" stroke="none" font-family="Arial" font-size="13px" font-style="normal" font-weight="normal" text-decoration="none" x="2589" y="1615.5">-type: String</text></g></g><g transform="translate(-1502,-494) scale(1,1)"><g><path fill="none" stroke="none"/><text fill="#000000" stroke="none" font-family="Arial" font-size="13px" font-style="normal" font-weight="normal" text-decoration="none" x="2589" y="1630.5">-techSpecs: String</text></g></g><g transform="translate(-1502,-494) scale(1,1)"><g><path fill="none" stroke="none"/><text fill="#000000" stroke="none" font-family="Arial" font-size="13px" font-style="normal" font-weight="normal" text-decoration="none" x="2589" y="1645.5">-price: float</text></g></g><g transform="translate(-1502,-494) scale(1,1)"><g><path fill="none" stroke="none"/><text fill="#000000" stroke="none" font-family="Arial" font-size="13px" font-style="normal" font-weight="normal" text-decoration="none" x="2589" y="1660.5">-purchaseDate: LocalDate</text></g></g><g transform="translate(-1502,-494) scale(1,1)"><path fill="none" stroke="#000000" d="M 1962 1494 L 1962 1624 L 2584 1624" stroke-miterlimit="10"/></g><g transform="translate(-1502,-494) scale(1,1)"><path fill="none" stroke="#000000" d="M 2573.837325142376 1628.2095177560159 L 2584 1624 L 2573.837325142376 1619.7904822439841" stroke-miterlimit="10"/></g><g transform="translate(-1502,-494) scale(1,1)"><g><path fill="none" stroke="none"/><text fill="#000000" stroke="none" font-family="Arial" font-size="13px" font-style="normal" font-weight="normal" text-decoration="none" x="1985.5" y="1618.5">+purchase &gt;</text></g></g><g transform="translate(-1502,-494) scale(1,1)"><g><path fill="none" stroke="none"/><text fill="#000000" stroke="none" font-family="Arial" font-size="13px" font-style="normal" font-weight="normal" text-decoration="none" x="1938.5" y="1519.5">0..1</text></g></g><g transform="translate(-1502,-494) scale(1,1)"><g><path fill="none" stroke="none"/><text fill="#000000" stroke="none" font-family="Arial" font-size="13px" font-style="normal" font-weight="normal" text-decoration="none" x="2559.726806640625" y="1640.5">*</text></g></g><g transform="translate(-1502,-494) scale(1,1)"><path fill="none" stroke="#000000" d="M 2657 1449 L 2657 1560" stroke-miterlimit="10"/></g><g transform="translate(-1502,-494) scale(1,1)"><path fill="none" stroke="#000000" d="M 2652.790482243984 1549.837325142376 L 2657 1560 L 2661.209517756016 1549.837325142376" stroke-miterlimit="10"/></g><g transform="translate(-1502,-494) scale(1,1)"><g><path fill="none" stroke="none"/><text fill="#000000" stroke="none" font-family="Arial" font-size="13px" font-style="normal" font-weight="normal" text-decoration="none" x="2664.5" y="1508.5">+have &gt;</text></g></g><g transform="translate(-1502,-494) scale(1,1)"><g><path fill="none" stroke="none"/><text fill="#000000" stroke="none" font-family="Arial" font-size="13px" font-style="normal" font-weight="normal" text-decoration="none" x="2633.5" y="1474.5">0..1</text></g></g><g transform="translate(-1502,-494) scale(1,1)"><g><path fill="none" stroke="none"/><text fill="#000000" stroke="none" font-family="Arial" font-size="13px" font-style="normal" font-weight="normal" text-decoration="none" x="2641.220458984375" y="1542.5">*</text></g></g><g transform="translate(-1502,-494) scale(1,1)"><path fill="none" stroke="#000000" d="M 2536 1368 L 2046 1368" stroke-miterlimit="10"/></g><g transform="translate(-1502,-494) scale(1,1)"><g><path fill="none" stroke="none"/><text fill="#000000" stroke="none" font-family="Arial" font-size="13px" font-style="normal" font-weight="normal" text-decoration="none" x="2288.5" y="1362.5">+&lt; works</text></g></g><g transform="translate(-1502,-494) scale(1,1)"><g><path fill="none" stroke="none"/><text fill="#000000" stroke="none" font-family="Arial" font-size="13px" font-style="normal" font-weight="normal" text-decoration="none" x="2503.5" y="1361.5">0..3</text></g></g><g transform="translate(-1502,-494) scale(1,1)"><g><path fill="none" stroke="none"/><text fill="#000000" stroke="none" font-family="Arial" font-size="13px" font-style="normal" font-weight="normal" text-decoration="none" x="2058.220458984375" y="1362.5">*</text></g></g><g transform="translate(-1502,-494) scale(1,1)"><rect fill="#C0C0C0" stroke="none" x="2239" y="1471" width="127.45361328125" height="117" opacity="0.2"/></g><g transform="translate(-1502,-494) scale(1,1)"><rect fill="#ffffff" stroke="none" x="2232" y="1464" width="127.45361328125" height="117"/></g><g transform="translate(-1502,-494) scale(1,1)"><path fill="none" stroke="#000000" d="M 2232 1464 L 2359.45361328125 1464 L 2359.45361328125 1581 L 2232 1581 L 2232 1464 Z Z" stroke-miterlimit="10"/></g><g transform="translate(-1502,-494) scale(1,1)"><path fill="none" stroke="#000000" d="M 2232 1489 L 2359.45361328125 1489" stroke-miterlimit="10"/></g><g transform="translate(-1502,-494) scale(1,1)"><path fill="none" stroke="#000000" d="M 2232 1572 L 2359.45361328125 1572" stroke-miterlimit="10"/></g><g transform="translate(-1502,-494) scale(1,1)"><g><path fill="none" stroke="none"/><text fill="#000000" stroke="none" font-family="Arial" font-size="13px" font-style="normal" font-weight="bold" text-decoration="none" x="2236.5" y="1481.5">EquipmentRequest</text></g></g><g transform="translate(-1502,-494) scale(1,1)"><g><path fill="none" stroke="none"/><text fill="#000000" stroke="none" font-family="Arial" font-size="13px" font-style="normal" font-weight="normal" text-decoration="none" x="2237" y="1504.5">-requestCode</text></g></g><g transform="translate(-1502,-494) scale(1,1)"><g><path fill="none" stroke="none"/><text fill="#000000" stroke="none" font-family="Arial" font-size="13px" font-style="normal" font-weight="normal" text-decoration="none" x="2237" y="1518.5">-name</text></g></g><g transform="translate(-1502,-494) scale(1,1)"><g><path fill="none" stroke="none"/><text fill="#000000" stroke="none" font-family="Arial" font-size="13px" font-style="normal" font-weight="normal" text-decoration="none" x="2237" y="1534.5">-techSpecs</text></g></g><g transform="translate(-1502,-494) scale(1,1)"><g><path fill="none" stroke="none"/><text fill="#000000" stroke="none" font-family="Arial" font-size="13px" font-style="normal" font-weight="normal" text-decoration="none" x="2237" y="1549.5">-quantity</text></g></g><g transform="translate(-1502,-494) scale(1,1)"><g><path fill="none" stroke="none"/><text fill="#000000" stroke="none" font-family="Arial" font-size="13px" font-style="normal" font-weight="normal" text-decoration="none" x="2237" y="1564.5">-type</text></g></g><g transform="translate(-1502,-494) scale(1,1)"><path fill="none" stroke="#000000" d="M 2046 1400 L 2536 1400" stroke-miterlimit="10"/></g><g transform="translate(-1502,-494) scale(1,1)"><g><path fill="none" stroke="none"/><text fill="#000000" stroke="none" font-family="Arial" font-size="13px" font-style="normal" font-weight="normal" text-decoration="none" x="2064.220458984375" y="1416.5">*</text></g></g><g transform="translate(-1502,-494) scale(1,1)"><g><path fill="none" stroke="none"/><text fill="#000000" stroke="none" font-family="Arial" font-size="13px" font-style="normal" font-weight="normal" text-decoration="none" x="2511.220458984375" y="1416.5">*</text></g></g><g transform="translate(-1502,-494) scale(1,1)"><path fill="none" stroke="#000000" d="M 2296 1463 L 2296 1401 L 2292 1401" stroke-miterlimit="10" stroke-dasharray="3"/></g><g transform="translate(-1502,-494) scale(1,1)"><path fill="none" stroke="#000000" d="M 1961 1016 L 1961 845 L 2128 845 L 2128 666" stroke-miterlimit="10"/></g><g transform="translate(-1502,-494) scale(1,1)"><path fill="#FFFFFF" stroke="none" d="M 2136.4190355120318 686.3253497152483 L 2128 666 L 2119.5809644879682 686.3253497152483"/></g><g transform="translate(-1502,-494) scale(1,1)"><path fill="none" stroke="#000000" d="M 2136.4190355120318 686.3253497152483 L 2128 666 L 2119.5809644879682 686.3253497152483 L 2136.4190355120318 686.3253497152483" stroke-miterlimit="10"/></g><g transform="translate(-1502,-494) scale(1,1)"><path fill="none" stroke="#000000" d="M 2299 1008 L 2299 845 L 2128 845 L 2128 666" stroke-miterlimit="10"/></g><g transform="translate(-1502,-494) scale(1,1)"><path fill="#FFFFFF" stroke="none" d="M 2136.4190355120318 686.3253497152483 L 2128 666 L 2119.5809644879682 686.3253497152483"/></g><g transform="translate(-1502,-494) scale(1,1)"><path fill="none" stroke="#000000" d="M 2136.4190355120318 686.3253497152483 L 2128 666 L 2119.5809644879682 686.3253497152483 L 2136.4190355120318 686.3253497152483" stroke-miterlimit="10"/></g><g transform="translate(-1502,-494) scale(1,1)"><path fill="none" stroke="#000000" d="M 2320 1052 L 2320 1328 L 2536 1328" stroke-miterlimit="10"/></g><g transform="translate(-1502,-494) scale(1,1)"><g><path fill="none" stroke="none"/><text fill="#000000" stroke="none" font-family="Arial" font-size="13px" font-style="normal" font-weight="normal" text-decoration="none" x="2366.5" y="1322.5">+works &gt;</text></g></g><g transform="translate(-1502,-494) scale(1,1)"><g><path fill="none" stroke="none"/><text fill="#000000" stroke="none" font-family="Arial" font-size="13px" font-style="normal" font-weight="normal" text-decoration="none" x="2327.5" y="1076.5">1</text></g></g><g transform="translate(-1502,-494) scale(1,1)"><g><path fill="none" stroke="none"/><text fill="#000000" stroke="none" font-family="Arial" font-size="13px" font-style="normal" font-weight="normal" text-decoration="none" x="2504.5" y="1321.5">1..*</text></g></g></g></svg>